<svg width="52" height="51" viewBox="0 0 52 51" fill="none" xmlns="http://www.w3.org/2000/svg">
<path fill-rule="evenodd" clip-rule="evenodd" d="M26.4116 0C12.3284 0 0.911621 11.4167 0.911621 25.5C0.911621 39.5833 12.3284 51 26.4116 51C40.4949 51 51.9116 39.5833 51.9116 25.5C51.9116 11.4167 40.4949 0 26.4116 0ZM13.1532 21.1203H18.9321V38.4834H13.1532V21.1203ZM19.3128 15.7491C19.2753 14.0467 18.0579 12.75 16.081 12.75C14.1041 12.75 12.8116 14.0467 12.8116 15.7491C12.8116 17.4163 14.0659 18.7503 16.006 18.7503H16.0429C18.0579 18.7503 19.3128 17.4163 19.3128 15.7491ZM33.1193 20.7125C36.9221 20.7125 39.773 23.1947 39.773 28.5279L39.7727 38.4833H33.9941V29.1941C33.9941 26.8608 33.1579 25.2686 31.0659 25.2686C29.4694 25.2686 28.5184 26.342 28.1008 27.3787C27.948 27.7502 27.9105 28.2679 27.9105 28.7868V38.4838H22.1309C22.1309 38.4838 22.2071 22.75 22.1309 21.1207H27.9105V23.58C28.6775 22.3978 30.0511 20.7125 33.1193 20.7125Z" fill="#852665"/>
</svg>
