<svg width="51" height="51" viewBox="0 0 51 51" fill="none" xmlns="http://www.w3.org/2000/svg">
<path fill-rule="evenodd" clip-rule="evenodd" d="M25.5 0C11.4167 0 0 11.4167 0 25.5C0 39.5833 11.4167 51 25.5 51C39.5833 51 51 39.5833 51 25.5C51 11.4167 39.5833 0 25.5 0ZM12.2416 21.1203H18.0204V38.4834H12.2416V21.1203ZM18.4012 15.7491C18.3637 14.0467 17.1463 12.75 15.1693 12.75C13.1924 12.75 11.9 14.0467 11.9 15.7491C11.9 17.4163 13.1542 18.7503 15.0943 18.7503H15.1313C17.1463 18.7503 18.4012 17.4163 18.4012 15.7491ZM32.2077 20.7125C36.0105 20.7125 38.8613 23.1947 38.8613 28.5279L38.8611 38.4833H33.0825V29.1941C33.0825 26.8608 32.2463 25.2686 30.1543 25.2686C28.5577 25.2686 27.6068 26.342 27.1891 27.3787C27.0363 27.7502 26.9988 28.2679 26.9988 28.7868V38.4838H21.2193C21.2193 38.4838 21.2955 22.75 21.2193 21.1207H26.9988V23.58C27.7658 22.3978 29.1395 20.7125 32.2077 20.7125Z" fill="white"/>
</svg>
