<svg width="52" height="51" viewBox="0 0 52 51" fill="none" xmlns="http://www.w3.org/2000/svg">
<path fill-rule="evenodd" clip-rule="evenodd" d="M25.75 0C11.6667 0 0.25 11.4167 0.25 25.5C0.25 39.5833 11.6667 51 25.75 51C39.8333 51 51.25 39.5833 51.25 25.5C51.25 11.4167 39.8333 0 25.75 0ZM25.0398 21.6091L24.9863 20.7267C24.8257 18.4398 26.2348 16.3509 28.4644 15.5406C29.2849 15.2525 30.6762 15.2165 31.5859 15.4686C31.9426 15.5766 32.6204 15.9368 33.102 16.2609L33.976 16.8552L34.9392 16.549C35.4743 16.387 36.1877 16.1169 36.5088 15.9368C36.812 15.7747 37.0796 15.6847 37.0796 15.7387C37.0796 16.0448 36.4196 17.0892 35.8667 17.6655C35.1175 18.4758 35.3316 18.5478 36.8477 18.0076C37.7574 17.7015 37.7752 17.7015 37.5968 18.0436C37.4898 18.2237 36.9369 18.854 36.3483 19.4302C35.3494 20.4206 35.2959 20.5286 35.2959 21.357C35.2959 22.6355 34.6895 25.3006 34.083 26.7592C32.9593 29.4963 30.5513 32.3234 28.1434 33.746C24.7544 35.7448 20.2417 36.249 16.4425 35.0785C15.1761 34.6824 13 33.674 13 33.4939C13 33.4399 13.66 33.3678 14.4626 33.3498C16.1393 33.3138 17.8159 32.8456 19.2429 32.0173L20.206 31.4411L19.1002 31.0629C17.5305 30.5227 16.1214 29.2802 15.7647 28.1097C15.6577 27.7316 15.6933 27.7136 16.6922 27.7136L17.7267 27.6955L16.8527 27.2814C15.8182 26.7592 14.8729 25.8768 14.4091 24.9764C14.0702 24.3282 13.6421 22.6895 13.767 22.5635C13.8027 22.5094 14.1772 22.6175 14.6053 22.7615C15.836 23.2117 15.9966 23.1037 15.2831 22.3474C13.9453 20.9788 13.5351 18.944 14.1772 17.0172L14.4804 16.1529L15.6577 17.3233C18.0656 19.6823 20.9017 21.0869 24.148 21.501L25.0398 21.6091Z" fill="white"/>
</svg>
