<svg width="52" height="51" viewBox="0 0 52 51" fill="none" xmlns="http://www.w3.org/2000/svg">
<path fill-rule="evenodd" clip-rule="evenodd" d="M26.4116 0C12.3284 0 0.911621 11.4167 0.911621 25.5C0.911621 39.5833 12.3284 51 26.4116 51C40.4949 51 51.9116 39.5833 51.9116 25.5C51.9116 11.4167 40.4949 0 26.4116 0ZM25.7014 21.6091L25.6479 20.7267C25.4874 18.4398 26.8965 16.3509 29.1261 15.5406C29.9465 15.2525 31.3378 15.2165 32.2475 15.4686C32.6042 15.5766 33.282 15.9368 33.7636 16.2609L34.6376 16.8552L35.6008 16.549C36.1359 16.387 36.8494 16.1169 37.1704 15.9368C37.4736 15.7747 37.7412 15.6847 37.7412 15.7387C37.7412 16.0448 37.0812 17.0892 36.5283 17.6655C35.7792 18.4758 35.9932 18.5478 37.5093 18.0076C38.419 17.7015 38.4368 17.7015 38.2585 18.0436C38.1514 18.2237 37.5985 18.854 37.0099 19.4302C36.011 20.4206 35.9575 20.5286 35.9575 21.357C35.9575 22.6355 35.3511 25.3006 34.7446 26.7592C33.6209 29.4963 31.213 32.3234 28.805 33.746C25.416 35.7448 20.9033 36.249 17.1041 35.0785C15.8377 34.6824 13.6616 33.674 13.6616 33.4939C13.6616 33.4399 14.3216 33.3678 15.1242 33.3498C16.8009 33.3138 18.4775 32.8456 19.9045 32.0173L20.8677 31.4411L19.7618 31.0629C18.1921 30.5227 16.783 29.2802 16.4263 28.1097C16.3193 27.7316 16.355 27.7136 17.3538 27.7136L18.3884 27.6955L17.5144 27.2814C16.4798 26.7592 15.5345 25.8768 15.0707 24.9764C14.7318 24.3282 14.3037 22.6895 14.4286 22.5635C14.4643 22.5094 14.8388 22.6175 15.2669 22.7615C16.4977 23.2117 16.6582 23.1037 15.9447 22.3474C14.607 20.9788 14.1967 18.944 14.8388 17.0172L15.1421 16.1529L16.3193 17.3233C18.7272 19.6823 21.5633 21.0869 24.8096 21.501L25.7014 21.6091Z" fill="#852665"/>
</svg>
