<svg width="41" height="41" viewBox="0 0 41 41" fill="none" xmlns="http://www.w3.org/2000/svg">
<path d="M20.3576 37.6117C29.6979 37.6117 37.2698 30.0399 37.2698 20.6995C37.2698 11.3591 29.6979 3.78723 20.3576 3.78723C11.0172 3.78723 3.44531 11.3591 3.44531 20.6995C3.44531 30.0399 11.0172 37.6117 20.3576 37.6117Z" fill="#F0A241"/>
<path d="M39.2963 20.6995C39.2963 31.1581 30.818 39.6364 20.3594 39.6364C9.90078 39.6364 1.42241 31.1581 1.42241 20.6995C1.42241 10.2409 9.90078 1.7625 20.3594 1.7625C30.818 1.7625 39.2963 10.2409 39.2963 20.6995Z" stroke="#F0A241" stroke-width="2.12607" stroke-miterlimit="10"/>
<path d="M11.4943 7.28579C12.3823 7.28579 13.2409 7.28579 14.0995 7.28579C16.6688 7.27926 19.2381 7.27273 21.8074 7.2662C22.5224 7.26294 23.2373 7.25967 23.9523 7.25641C24.3212 7.25641 24.6314 7.40332 24.8893 7.65796C26.218 8.96384 27.5435 10.273 28.8755 11.5789C29.1758 11.8727 29.2999 12.2155 29.2901 12.6333C29.2737 13.27 29.2835 13.9098 29.2933 14.5465C29.2999 14.9056 29.4859 15.1569 29.7634 15.3789C30.4164 15.8948 31.053 16.4334 31.6929 16.9656C32.1401 17.3378 32.274 17.8732 32.3066 18.4053C32.3719 19.4663 32.4013 20.5274 32.4046 21.5916C32.4111 23.4721 32.3915 25.3526 32.3752 27.233C32.3687 28.0492 32.4078 28.8719 32.3164 29.6783C32.1728 30.9776 31.3958 31.7024 30.0899 31.8264C29.499 31.8852 28.9016 31.8852 28.3074 31.8852C23.9327 31.895 19.558 31.8983 15.1834 31.8983C13.7208 31.8983 12.2549 31.9113 10.7924 31.8819C9.56483 31.8591 8.78783 31.2225 8.49728 30.057C8.43198 29.7958 8.38954 29.5216 8.36669 29.2539C8.33731 28.898 8.33078 28.5389 8.33078 28.183C8.32425 25.1436 8.32098 22.1075 8.31445 19.068C8.31445 18.957 8.32098 18.846 8.32098 18.735C8.31772 17.958 8.60501 17.3312 9.21224 16.8187C9.88803 16.2506 10.5181 15.6238 11.1711 15.0296C11.4322 14.7913 11.5073 14.5105 11.5041 14.1612C11.4845 11.951 11.4812 9.73757 11.4747 7.52738C11.4747 7.44576 11.4877 7.36088 11.4943 7.28579ZM21.0761 18.5653C20.6125 18.7155 20.1881 18.8983 19.7441 18.9897C18.4154 19.2639 17.3707 18.4706 17.2956 17.1223C17.2303 15.9046 17.6841 14.8566 18.5101 13.9751C19.0357 13.4136 19.7213 13.1426 20.4689 13.0218C21.4548 12.8619 22.431 12.95 23.4691 13.1035C23.3777 13.5768 23.319 14.0339 23.1982 14.4714C22.9794 15.2647 22.7117 16.0482 22.4897 16.8383C22.4048 17.1353 22.3885 17.4488 22.3298 17.8013C22.4734 17.772 22.5452 17.7622 22.617 17.7426C23.0839 17.6022 23.4006 17.279 23.6552 16.884C24.0372 16.2865 24.2298 15.6205 24.3604 14.9317C24.4975 14.1971 24.3767 13.5507 23.8217 13.0088C23.6944 12.8815 23.6095 12.7019 23.5312 12.5354C23.4234 12.2971 23.2602 12.1273 23.0219 12.0261C22.1502 11.6572 21.2557 11.5397 20.3285 11.7551C17.8637 12.3265 16.1007 14.886 16.4403 17.3933C16.6753 19.1235 17.8702 20.2303 19.6135 20.3609C20.4101 20.4229 21.1447 20.2237 21.8727 19.9364C22.2808 19.7765 22.7052 19.7144 23.1818 19.7406C23.1296 19.894 23.1002 20.0344 23.0415 20.1617C22.777 20.72 19.7343 21.7255 18.6962 21.5133C17.2303 21.2097 16.0975 20.4425 15.4478 19.0582C14.9744 18.0495 14.8993 16.9786 15.0364 15.8882C15.4902 12.3003 18.9802 9.81919 22.4048 10.6386C22.7835 10.73 23.1655 10.8117 23.5605 10.8998C23.5605 10.1359 23.5605 9.39151 23.5605 8.62758C19.9922 8.62758 16.4337 8.62758 12.8524 8.62758C12.8524 8.78102 12.8524 8.89202 12.8524 8.99975C12.8524 12.1926 12.8556 15.3822 12.8458 18.5751C12.8458 18.8167 12.9242 18.9603 13.1103 19.0974C14.6316 20.2303 16.1464 21.3729 17.6613 22.509C17.8898 22.682 18.1281 22.9726 18.3632 22.9726C18.6015 22.9726 18.8431 22.6853 19.0749 22.5188C20.1294 21.7614 21.5854 21.7679 22.6301 22.5417C22.8586 22.7114 23.0676 22.9106 23.2896 23.0967C23.3418 23.064 23.3875 23.0379 23.4267 23.0085C24.886 21.8267 26.3486 20.6449 27.8014 19.4533C27.8765 19.3912 27.9124 19.2476 27.9124 19.1431C27.9124 17.4749 27.9058 15.8066 27.8993 14.1384C27.8993 13.825 27.8993 13.5148 27.8993 13.1949C27.0995 13.1949 26.3388 13.1949 25.5553 13.1949C25.5683 13.3124 25.5749 13.4103 25.5879 13.5115C25.7185 14.5595 25.6401 15.5846 25.2614 16.5771C24.8958 17.5402 24.3343 18.3563 23.4006 18.8558C22.8586 19.1464 22.2775 19.2215 21.6997 19.0027C21.4613 18.9113 21.2655 18.6991 21.0761 18.5653ZM10.8544 30.6446C10.8674 30.6609 10.8838 30.6773 10.8968 30.6968C17.4164 30.6968 23.936 30.6968 30.498 30.6968C30.4131 30.6218 30.3641 30.5761 30.3119 30.5336C28.056 28.6989 25.7968 26.8608 23.541 25.0261C22.986 24.5756 22.4342 24.1218 21.8662 23.6876C21.2589 23.2207 20.6158 23.1979 19.9661 23.6027C19.7507 23.7365 19.5384 23.8802 19.336 24.0369C16.8777 25.9304 14.4194 27.8272 11.9644 29.7272C11.5857 30.0243 11.2233 30.341 10.8544 30.6446ZM9.75418 29.675C12.2941 27.886 14.5761 25.8782 17.0932 24.0793C16.881 23.8835 16.6916 23.6908 16.4794 23.5243C15.6078 22.829 14.7263 22.1466 13.8546 21.4545C12.6859 20.5208 11.5236 19.5773 10.3516 18.6469C10.1884 18.5163 9.98597 18.4314 9.75092 18.2943C9.75418 22.114 9.75418 25.8488 9.75418 29.675ZM24.5106 24.0499C26.6751 25.7737 28.7514 27.5497 30.9681 29.1951C30.9681 25.6823 30.9681 22.2315 30.9681 18.7318C28.7971 20.5208 26.6653 22.274 24.5106 24.0499ZM19.6625 17.8993C19.6952 17.896 19.7539 17.896 19.8127 17.8895C19.8616 17.883 19.9139 17.8699 19.9629 17.8601C20.5929 17.7426 20.9161 17.2692 21.1186 16.7403C21.3732 16.0776 21.5593 15.3887 21.7421 14.6999C21.8498 14.2951 21.7388 14.1743 21.3144 14.1286C21.2067 14.1155 21.0924 14.122 20.9847 14.1318C20.3546 14.1873 19.8616 14.5007 19.4601 14.9676C18.9312 15.5814 18.6145 16.2833 18.7321 17.1158C18.8006 17.6283 19.1369 17.9025 19.6625 17.8993ZM26.8677 11.8825C26.2049 11.2197 25.5324 10.5505 24.8697 9.89101C24.8697 10.5309 24.8697 11.2001 24.8697 11.8825C25.5553 11.8825 26.2245 11.8825 26.8677 11.8825ZM30.2368 17.4618C29.9038 17.2104 29.6165 16.995 29.2999 16.7599C29.2999 17.2594 29.2999 17.7197 29.2999 18.2584C29.6394 17.9711 29.9234 17.7295 30.2368 17.4618Z" fill="#F0A241"/>
<path d="M21.0753 18.5652C21.2647 18.6991 21.4605 18.9113 21.7054 19.006C22.2832 19.2247 22.8611 19.1464 23.4063 18.8591C24.3433 18.3596 24.9015 17.5434 25.2672 16.5803C25.6426 15.5911 25.7242 14.5627 25.5936 13.5148C25.5806 13.4168 25.574 13.3156 25.561 13.1981C26.3445 13.1981 27.1052 13.1981 27.905 13.1981C27.905 13.518 27.905 13.8314 27.905 14.1416C27.9116 15.8098 27.9181 17.4781 27.9181 19.1464C27.9181 19.2508 27.8789 19.3945 27.8071 19.4565C26.3543 20.6481 24.8917 21.8299 23.4324 23.0117C23.3932 23.0444 23.3475 23.0672 23.2953 23.0999C23.0766 22.9138 22.8676 22.7147 22.6358 22.5449C21.5911 21.7712 20.1351 21.7646 19.0806 22.522C18.8455 22.6918 18.6039 22.9791 18.3689 22.9758C18.1338 22.9758 17.8988 22.682 17.667 22.5122C16.1489 21.3761 14.6373 20.2335 13.116 19.1006C12.9267 18.9603 12.8516 18.8166 12.8516 18.5783C12.8614 15.3854 12.8581 12.1958 12.8581 9.00297C12.8581 8.89524 12.8581 8.78424 12.8581 8.6308C16.4362 8.6308 19.9947 8.6308 23.5663 8.6308C23.5663 9.39474 23.5663 10.1391 23.5663 10.903C23.168 10.8149 22.7893 10.7333 22.4106 10.6418C18.9794 9.81914 15.4894 12.3003 15.0356 15.8817C14.8985 16.9753 14.9736 18.0429 15.447 19.0517C16.0967 20.4359 17.2295 21.2031 18.6954 21.5067C19.7335 21.7222 20.7619 21.6634 21.7544 21.2553C22.2996 21.0301 22.7795 20.7134 23.0439 20.1551C23.1027 20.0278 23.1353 19.8874 23.1843 19.734C22.7076 19.7079 22.2832 19.7699 21.8752 19.9299C21.1504 20.2172 20.4126 20.4131 19.616 20.3543C17.8726 20.2204 16.6778 19.1137 16.4427 17.3867C16.1032 14.8827 17.8661 12.3199 20.331 11.7486C21.2581 11.5331 22.1559 11.6539 23.0243 12.0195C23.2626 12.1207 23.4259 12.2872 23.5336 12.5288C23.6087 12.6986 23.6936 12.8782 23.8242 13.0022C24.3792 13.5442 24.5 14.1938 24.3628 14.9251C24.2323 15.614 24.0396 16.2832 23.6577 16.8774C23.403 17.2724 23.0896 17.5989 22.6195 17.736C22.5509 17.7556 22.4759 17.7654 22.3322 17.7948C22.3877 17.4422 22.4073 17.1288 22.4922 16.8317C22.7174 16.0384 22.9819 15.2581 23.2006 14.4648C23.3214 14.0273 23.3802 13.5735 23.4716 13.0969C22.4334 12.9434 21.4573 12.8553 20.4713 13.0153C19.7205 13.1361 19.0381 13.407 18.5125 13.9686C17.6866 14.85 17.2328 15.898 17.2981 17.1157C17.3732 18.464 18.4179 19.2574 19.7466 18.9831C20.1873 18.8982 20.615 18.7154 21.0753 18.5652Z" fill="white"/>
<path d="M10.8516 30.6446C11.2205 30.3377 11.5829 30.0243 11.9648 29.7305C14.4199 27.8305 16.8782 25.9337 19.3365 24.0402C19.5389 23.8834 19.7511 23.7398 19.9666 23.606C20.6162 23.1979 21.2594 23.224 21.8666 23.6908C22.4314 24.125 22.9864 24.5788 23.5414 25.0294C25.8006 26.8641 28.0565 28.6989 30.3124 30.5369C30.3646 30.5793 30.4136 30.625 30.4984 30.7001C23.9364 30.7001 17.4168 30.7001 10.8973 30.7001C10.8777 30.6805 10.8646 30.6609 10.8516 30.6446Z" fill="white"/>
<path d="M9.75391 29.675C9.75391 25.8488 9.75391 22.114 9.75391 18.2911C9.98896 18.4249 10.1914 18.5131 10.3546 18.6437C11.5266 19.5741 12.6889 20.5209 13.8576 21.4513C14.7293 22.1467 15.6108 22.829 16.4824 23.5211C16.6914 23.6876 16.8807 23.8835 17.0962 24.0761C14.5726 25.8782 12.2938 27.886 9.75391 29.675Z" fill="white"/>
<path d="M24.5078 24.0501C26.6625 22.2741 28.7943 20.521 30.9654 18.7319C30.9654 22.2349 30.9654 25.6825 30.9654 29.1953C28.7454 27.5499 26.6723 25.7739 24.5078 24.0501Z" fill="white"/>
<path d="M19.6613 17.8992C19.1357 17.9025 18.7994 17.6282 18.7276 17.1157C18.61 16.2832 18.9267 15.5813 19.4556 14.9675C19.8539 14.5006 20.3501 14.1872 20.9802 14.1317C21.0912 14.1219 21.2022 14.1187 21.3099 14.1285C21.7344 14.1774 21.8453 14.2982 21.7376 14.6998C21.5548 15.3854 21.3687 16.0775 21.1141 16.7402C20.9116 17.2691 20.5917 17.7392 19.9584 17.86C19.9094 17.8698 19.8571 17.8829 19.8082 17.8894C19.7527 17.8959 19.6939 17.8959 19.6613 17.8992Z" fill="white"/>
<path d="M26.8652 11.8825C26.222 11.8825 25.5528 11.8825 24.8672 11.8825C24.8672 11.1969 24.8672 10.5309 24.8672 9.89105C25.5299 10.5505 26.2024 11.2198 26.8652 11.8825Z" fill="white"/>
<path d="M30.2338 17.4618C29.9204 17.7295 29.6331 17.9744 29.2969 18.2617C29.2969 17.723 29.2969 17.2627 29.2969 16.7632C29.6135 16.995 29.9008 17.2104 30.2338 17.4618Z" fill="white"/>
<path d="M16.244 10.0512L22.682 9.62024L27.4746 15.5195L24.298 20.3382L21.8462 21.7388L19.2345 21.8726L16.9721 21.174L14.0371 17.4849L14.628 12.0165L16.244 10.0512Z" fill="white"/>
<path d="M30.7178 13.3126H23.418V7.87689H24.7238V12.0067H30.7178V13.3126Z" fill="#F0A241"/>
<path d="M22.8261 21.0368C21.9903 21.4155 21.2656 21.5395 20.2698 21.5395C17.9519 21.5395 15.9082 19.8778 15.9082 17.1387C15.9082 14.2919 17.9878 11.814 21.135 11.814C23.5998 11.814 25.3595 13.5084 25.3595 15.8557C25.3595 17.8961 24.2168 19.1824 22.7053 19.1824C22.0491 19.1824 21.5757 18.8364 21.5071 18.1018H21.4712C21.0338 18.8102 20.4167 19.1824 19.6691 19.1824C18.7648 19.1824 18.0988 18.5034 18.0988 17.3542C18.0988 15.6468 19.3655 14.1091 21.3733 14.1091C21.9936 14.1091 22.689 14.2593 23.035 14.4454L22.6204 17.0375C22.4833 17.857 22.5812 18.2389 22.9762 18.2487C23.577 18.2683 24.3213 17.5044 24.3213 15.8949C24.3213 14.0699 23.1493 12.6694 20.9881 12.6694C18.8464 12.6694 16.979 14.3344 16.979 17.0081C16.979 19.3489 18.471 20.6711 20.5506 20.6711C21.2623 20.6711 22.023 20.5144 22.5812 20.2337L22.8261 21.0368ZM21.592 15.2713C21.4745 15.2387 21.3308 15.2126 21.1578 15.2126C20.2339 15.2126 19.5124 16.1267 19.5124 17.1942C19.5124 17.7231 19.7475 18.0594 20.2013 18.0594C20.7204 18.0594 21.2656 17.4032 21.3863 16.5968L21.592 15.2713Z" fill="#F0A241"/>
</svg>
