<svg width="41" height="41" viewBox="0 0 41 41" fill="none" xmlns="http://www.w3.org/2000/svg">
<path d="M20.2931 37.6117C29.6335 37.6117 37.2054 30.0399 37.2054 20.6995C37.2054 11.3591 29.6335 3.78723 20.2931 3.78723C10.9527 3.78723 3.38086 11.3591 3.38086 20.6995C3.38086 30.0399 10.9527 37.6117 20.2931 37.6117Z" fill="#F0A241"/>
<path d="M39.2319 20.6995C39.2319 31.1581 30.7535 39.6364 20.2949 39.6364C9.83632 39.6364 1.35795 31.1581 1.35795 20.6995C1.35795 10.2409 9.83632 1.7625 20.2949 1.7625C30.7535 1.7625 39.2319 10.2409 39.2319 20.6995Z" stroke="#F0A241" stroke-width="2.12607" stroke-miterlimit="10"/>
<path d="M26.2383 31.6994C25.0424 31.6682 23.3182 30.9381 21.6963 29.9837C17.4013 27.4556 14.0097 24.027 11.6435 19.627C10.8141 18.0874 10.2204 16.4683 10.2772 14.6645C10.3312 12.9034 11.5214 11.7586 13.2967 11.6677C14.2767 11.6166 14.7965 11.9518 15.1544 12.8579C15.6459 14.1106 16.2651 15.3122 16.8446 16.5279C17.0946 17.0535 17.0548 17.4937 16.6117 17.9028C16.1941 18.2891 15.8049 18.7038 15.3987 19.1043C15.0181 19.4793 14.9869 19.9025 15.2851 20.3201C17.0576 22.7942 19.1824 24.9218 21.6565 26.6943C22.0996 27.0125 22.5286 26.9613 22.9149 26.558C23.3239 26.1347 23.75 25.7285 24.159 25.3081C24.5056 24.9531 24.8919 24.8991 25.3322 25.1008C26.8036 25.7797 28.2892 26.433 29.7351 27.1602C29.9992 27.2937 30.2066 27.7141 30.2691 28.0351C30.3515 28.4441 30.3202 28.9014 30.2322 29.3162C29.8771 30.9495 28.8261 31.7022 26.2383 31.6994Z" fill="white"/>
</svg>
