<svg width="41" height="40" viewBox="0 0 41 40" fill="none" xmlns="http://www.w3.org/2000/svg">
<path d="M20.1095 36.9123C29.4499 36.9123 37.0218 29.3404 37.0218 20C37.0218 10.6596 29.4499 3.08777 20.1095 3.08777C10.7691 3.08777 3.19727 10.6596 3.19727 20C3.19727 29.3404 10.7691 36.9123 20.1095 36.9123Z" fill="#F0A241"/>
<path d="M39.0483 20C39.0483 30.4586 30.5699 38.937 20.1113 38.937C9.65273 38.937 1.17436 30.4586 1.17436 20C1.17436 9.5414 9.65273 1.06303 20.1113 1.06303C30.5699 1.06303 39.0483 9.5414 39.0483 20Z" stroke="#F0A241" stroke-width="2.12607" stroke-miterlimit="10"/>
<path d="M17.4008 25.8732V25.8792H18.6415V25.8732H18.6475H20.0414H21.1169V25.8762H22.3576V25.8732H24.1271H31.9018V16.317C31.9018 13.5111 29.6187 11.2279 26.8128 11.2279H23.5172V12.4687H26.8128C28.9337 12.4687 30.6611 14.193 30.6611 16.317V24.6324H18.6445V16.317C18.6445 14.7788 17.9566 13.4029 16.8751 12.4687H21.3182V14.7368C20.8766 14.9471 20.5702 15.3917 20.5702 15.9144C20.5702 16.6354 21.156 17.2212 21.877 17.2212C22.598 17.2212 23.1838 16.6354 23.1838 15.9144C23.1838 15.3917 22.8774 14.9471 22.4358 14.7368V9.69883H25.9176V6.61658H21.3212V8.92977V9.69883V11.2309H13.4113C10.6054 11.2309 8.32227 13.5141 8.32227 16.32V25.8762H8.46947H17.4008V25.8732ZM9.71018 16.317C9.71018 14.196 11.4346 12.4687 13.5585 12.4687C15.6794 12.4687 17.4068 14.193 17.4068 16.317V24.6324H9.71018V16.317Z" fill="white"/>
<path d="M16.2415 17.7861H10.873V19.0268H16.2415V17.7861Z" fill="white"/>
<path d="M24.903 25.2484H22.9473V36.9123H24.903V25.2484Z" fill="white"/>
</svg>
