<svg width="20" height="10" viewBox="0 0 20 10" fill="none" xmlns="http://www.w3.org/2000/svg">
<path d="M9.15676 5.00001C9.15676 6.21298 8.67492 7.37627 7.81722 8.23397C6.95952 9.09166 5.79623 9.57351 4.58327 9.57351C3.3703 9.57351 2.20701 9.09166 1.34931 8.23397C0.491615 7.37627 0.00976562 6.21298 0.00976562 5.00001C0.00976562 3.78705 0.491615 2.62376 1.34931 1.76606C2.20701 0.908364 3.3703 0.426514 4.58327 0.426514C5.79623 0.426514 6.95952 0.908364 7.81722 1.76606C8.67492 2.62376 9.15676 3.78705 9.15676 5.00001V5.00001ZM19.9898 5.00001C19.9898 6.21298 19.5079 7.37627 18.6502 8.23397C17.7925 9.09166 16.6292 9.57351 15.4163 9.57351C14.2033 9.57351 13.04 9.09166 12.1823 8.23397C11.3246 7.37627 10.8428 6.21298 10.8428 5.00001C10.8428 3.78705 11.3246 2.62376 12.1823 1.76606C13.04 0.908364 14.2033 0.426514 15.4163 0.426514C16.6292 0.426514 17.7925 0.908364 18.6502 1.76606C19.5079 2.62376 19.9898 3.78705 19.9898 5.00001V5.00001Z" fill="white"/>
</svg>
