<svg width="23" height="23" viewBox="0 0 23 23" fill="none" xmlns="http://www.w3.org/2000/svg">
<path fill-rule="evenodd" clip-rule="evenodd" d="M7.21204 0.226318H15.5161C19.3374 0.226318 22.4362 3.30494 22.4362 7.10132V15.3513C22.4362 19.1477 19.3374 22.2263 15.5161 22.2263H7.21204C3.39079 22.2263 0.291992 19.1477 0.291992 15.3513V7.10132C0.291992 3.30494 3.39079 0.226318 7.21204 0.226318ZM15.5161 20.1638C18.1872 20.1638 20.3601 18.0051 20.3601 15.3513V7.10132C20.3601 4.44757 18.1872 2.28882 15.5161 2.28882H7.21206C4.54093 2.28882 2.36804 4.44757 2.36804 7.10132V15.3513C2.36804 18.0051 4.54093 20.1638 7.21206 20.1638H15.5161Z" fill="white"/>
<path fill-rule="evenodd" clip-rule="evenodd" d="M5.82812 11.2263C5.82812 8.18894 8.30687 5.72632 11.3641 5.72632C14.4214 5.72632 16.9001 8.18894 16.9001 11.2263C16.9001 14.2637 14.4214 16.7263 11.3641 16.7263C8.30687 16.7263 5.82812 14.2637 5.82812 11.2263ZM7.90417 11.2263C7.90417 13.1211 9.45703 14.6638 11.3642 14.6638C13.2714 14.6638 14.8242 13.1211 14.8242 11.2263C14.8242 9.33019 13.2714 7.78882 11.3642 7.78882C9.45703 7.78882 7.90417 9.33019 7.90417 11.2263Z" fill="white"/>
<ellipse cx="17.3154" cy="5.31381" rx="0.737732" ry="0.732875" fill="white"/>
</svg>
