<svg width="32" height="32" viewBox="0 0 32 32" fill="none" xmlns="http://www.w3.org/2000/svg">
<g clip-path="url(#clip0)">
<path d="M19.5151 11.9519C18.8371 11.9519 18.3351 12.1229 17.9421 12.3389C17.8791 12.1149 17.6721 11.9509 17.4281 11.9999H14.4441C14.1491 11.9509 13.9101 12.1899 14.0011 12.4999V23.4999C13.9101 23.7799 14.1491 24.0199 14.4441 23.9999H17.4281C17.7231 24.0199 17.9621 23.7799 17.9621 23.4849L17.9611 16.8369C17.9601 16.8339 17.9491 16.5159 18.1501 16.2969C18.3111 16.1229 18.5881 16.0339 18.9711 16.0339C19.6091 16.0339 19.8931 16.2949 19.9991 16.8789V23.4849C19.8941 23.7799 20.1331 24.0199 20.4281 23.9999H23.5731C23.8681 24.0199 24.1071 23.7799 24.0011 23.4849V16.6569C24.1061 13.1849 21.6331 11.9519 19.5151 11.9519V11.9519ZM23.0381 22.9999H20.9621V16.8789C20.9621 15.6979 20.1991 14.9659 18.9721 14.9659C18.2781 14.9659 17.7381 15.1699 17.3661 15.5719C16.8491 16.1319 16.8891 16.8419 17.0001 16.9999V22.9999H14.9781V13.0199H16.8941V13.3559C16.8933 13.456 16.9207 13.5543 16.9733 13.6395C17.0259 13.7246 17.1014 13.7933 17.1912 13.8374C17.2811 13.8816 17.3815 13.8996 17.4811 13.8892C17.5806 13.8789 17.6752 13.8406 17.7541 13.7789L17.8941 13.6709C18.2991 13.3519 18.7181 13.0209 19.5161 13.0209C20.3421 13.0209 23.0391 13.2839 23.0391 16.6579V22.9999H23.0381Z" fill="white"/>
<path d="M10.9998 6.96594C9.87782 6.96594 8.96582 7.87794 8.96582 8.99994C8.96582 10.1219 9.87782 11.0339 10.9998 11.0339C12.1218 11.0339 13.0338 10.1219 13.0338 8.99994C13.0338 7.87794 12.1218 6.96594 10.9998 6.96594ZM10.9998 9.96594C10.4678 9.96594 10.0338 9.53194 10.0338 8.99994C10.0338 8.46794 10.4678 8.03394 10.9998 8.03394C11.5318 8.03394 11.9658 8.46794 11.9658 8.99994C11.9658 9.53194 11.5318 9.96594 10.9998 9.96594Z" fill="white"/>
<path d="M12.4279 11.9509H9.45991C9.16491 11.9509 8.92591 12.1899 8.99991 12.4999V23.4999C8.92591 23.7799 9.16491 24.0199 9.45991 23.9999H12.4279C12.7229 24.0199 12.9619 23.7799 12.9619 23.4849V12.4849C12.9619 12.3433 12.9056 12.2075 12.8055 12.1073C12.7054 12.0072 12.5695 11.9509 12.4279 11.9509ZM11.9999 22.9999H9.99391V13.0199H11.9999V22.9999Z" fill="white"/>
<path d="M15.9998 -0.0340576C7.15782 -0.0340576 -0.0341797 7.15794 -0.0341797 15.9999C-0.0341797 24.8419 7.15782 32.0339 15.9998 32.0339C24.8418 32.0339 32.0338 24.8419 32.0338 15.9999C32.0338 7.15794 24.8418 -0.0340576 15.9998 -0.0340576ZM15.9998 30.9659C7.74782 30.9659 1.03382 24.2519 1.03382 15.9999C1.03382 7.74794 7.74782 1.03394 15.9998 1.03394C24.2518 1.03394 30.9658 7.74794 30.9658 15.9999C30.9658 24.2519 24.2518 30.9659 15.9998 30.9659Z" fill="white"/>
</g>
<defs>
<clipPath id="clip0">
<rect width="32" height="32" fill="white"/>
</clipPath>
</defs>
</svg>
