<svg width="24" height="19" viewBox="0 0 24 19" fill="none" xmlns="http://www.w3.org/2000/svg">
<path d="M23.0299 2.34244C22.2064 2.70132 21.329 2.93919 20.4141 3.05469C21.3553 2.49644 22.0736 1.61919 22.4113 0.561818C21.5338 1.08157 20.565 1.44869 19.5325 1.65357C18.6993 0.772193 17.5119 0.226318 16.2164 0.226318C13.7031 0.226318 11.6796 2.25307 11.6796 4.73769C11.6796 5.09519 11.7101 5.43894 11.7848 5.76619C8.01063 5.58332 4.67101 3.78619 2.42753 1.04857C2.03585 1.72369 1.80611 2.49644 1.80611 3.32832C1.80611 4.89032 2.61575 6.27494 3.82261 7.07657C3.09324 7.06282 2.37771 6.85244 1.77151 6.52107C1.77151 6.53482 1.77151 6.55269 1.77151 6.57057C1.77151 8.76232 3.34513 10.5828 5.40869 11.0022C5.03916 11.1026 4.63641 11.1507 4.21844 11.1507C3.9278 11.1507 3.63439 11.1342 3.35897 11.0737C3.94717 12.8598 5.61629 14.1729 7.60096 14.2156C6.0564 15.4159 4.09526 16.1392 1.97219 16.1392C1.59989 16.1392 1.24282 16.1227 0.885742 16.0773C2.89671 17.3657 5.27997 18.1013 7.85008 18.1013C16.204 18.1013 20.7712 11.2263 20.7712 5.26707C20.7712 5.06769 20.7643 4.87519 20.7546 4.68407C21.6556 4.04882 22.4126 3.25544 23.0299 2.34244Z" fill="white"/>
</svg>
