<svg width="33" height="33" viewBox="0 0 33 33" fill="none" xmlns="http://www.w3.org/2000/svg">
<path fill="#fff" d="M10.9176 20.3829L11.5208 20.6845L11.7073 20.3114L11.4568 19.9779L10.9176 20.3829ZM12.3626 21.8279L12.7677 21.2887L12.4342 21.0382L12.0611 21.2247L12.3626 21.8279ZM9.47266 23.2729L8.86952 22.9713C8.73971 23.2309 8.79059 23.5445 8.99583 23.7497C9.20107 23.9549 9.51462 24.0058 9.77423 23.876L9.47266 23.2729ZM13.8083 13.1565L13.4037 12.617C13.2339 12.7444 13.1339 12.9442 13.1339 13.1565H13.8083ZM19.5891 18.9373V19.6116C19.788 19.6116 19.9767 19.5238 20.1049 19.3716L19.5891 18.9373ZM14.2573 12.8197L13.8527 12.2802L14.2573 12.8197ZM15.4079 13.3081L14.7388 13.3918L14.7388 13.3918L15.4079 13.3081ZM15.5709 14.6123L16.24 14.5286V14.5286L15.5709 14.6123ZM15.3649 15.2129L14.888 14.736V14.736L15.3649 15.2129ZM19.9094 18.5569L19.3936 18.1225L19.9094 18.5569ZM19.4613 17.3764L19.5589 16.7092H19.5589L19.4613 17.3764ZM18.1416 17.1833L18.2392 16.5161L18.1416 17.1833ZM17.526 17.3873L18.0028 17.8642V17.8642L17.526 17.3873ZM8.79833 16.0469C8.79833 17.8248 9.38646 19.4674 10.3785 20.7879L11.4568 19.9779C10.6342 18.8829 10.147 17.5227 10.147 16.0469H8.79833ZM16.6987 8.14653C12.3354 8.14653 8.79833 11.6836 8.79833 16.0469H10.147C10.147 12.4285 13.0803 9.49519 16.6987 9.49519V8.14653ZM24.599 16.0469C24.599 11.6836 21.0619 8.14653 16.6987 8.14653V9.49519C20.3171 9.49519 23.2503 12.4285 23.2503 16.0469H24.599ZM16.6987 23.9472C21.0619 23.9472 24.599 20.4101 24.599 16.0469H23.2503C23.2503 19.6652 20.3171 22.5985 16.6987 22.5985V23.9472ZM11.9576 22.367C13.2782 23.3591 14.9207 23.9472 16.6987 23.9472V22.5985C15.2228 22.5985 13.8627 22.1113 12.7677 21.2887L11.9576 22.367ZM9.77423 23.876L12.6642 22.431L12.0611 21.2247L9.17109 22.6697L9.77423 23.876ZM10.3145 20.0813L8.86952 22.9713L10.0758 23.5744L11.5208 20.6845L10.3145 20.0813ZM13.1339 13.1565V13.8791H14.4826V13.1565H13.1339ZM18.8665 19.6116H19.5891V18.2629H18.8665V19.6116ZM13.1339 13.8791C13.1339 17.0451 15.7005 19.6116 18.8665 19.6116V18.2629C16.4453 18.2629 14.4826 16.3002 14.4826 13.8791H13.1339ZM14.2129 13.6959L14.6619 13.3591L13.8527 12.2802L13.4037 12.617L14.2129 13.6959ZM14.7388 13.3918L14.9018 14.6959L16.24 14.5286L16.077 13.2245L14.7388 13.3918ZM14.888 14.736L14.054 15.57L15.0077 16.5237L15.8417 15.6897L14.888 14.736ZM14.9018 14.6959C14.9036 14.7107 14.8986 14.7255 14.888 14.736L15.8417 15.6897C16.1465 15.3849 16.2935 14.9564 16.24 14.5286L14.9018 14.6959ZM14.6619 13.3591C14.6735 13.3505 14.6804 13.3493 14.6844 13.3488C14.6905 13.3482 14.6995 13.349 14.7097 13.3533C14.7199 13.3577 14.7268 13.3636 14.7305 13.3684C14.733 13.3716 14.737 13.3774 14.7388 13.3918L16.077 13.2245C15.944 12.1602 14.7108 11.6366 13.8527 12.2802L14.6619 13.3591ZM20.1049 19.3716L20.4252 18.9912L19.3936 18.1225L19.0733 18.5029L20.1049 19.3716ZM19.5589 16.7092L18.2392 16.5161L18.0439 17.8505L19.3637 18.0437L19.5589 16.7092ZM17.0492 16.9105L16.2218 17.7378L17.1755 18.6915L18.0028 17.8642L17.0492 16.9105ZM18.2392 16.5161C17.8025 16.4522 17.3613 16.5984 17.0492 16.9105L18.0028 17.8642C18.0136 17.8534 18.0288 17.8483 18.0439 17.8505L18.2392 16.5161ZM20.4252 18.9912C21.1303 18.1539 20.6421 16.8677 19.5589 16.7092L19.3637 18.0437C19.3786 18.0459 19.3842 18.0501 19.3872 18.0525C19.3918 18.0564 19.3977 18.0636 19.4018 18.0743C19.4059 18.085 19.4062 18.0943 19.4053 18.1003C19.4047 18.1041 19.4033 18.111 19.3936 18.1225L20.4252 18.9912Z" fill="white"/>
<circle cx="16.666" cy="16.0151" r="15.3257" stroke="white" stroke-width="1.34866" fill="transparent" />
</svg>
